<?xml version="1.0" standalone="no"?>
<!DOCTYPE svg PUBLIC "-//W3C//DTD SVG 20010904//EN"
 "http://www.w3.org/TR/2001/REC-SVG-20010904/DTD/svg10.dtd">
<svg version="1.0" xmlns="http://www.w3.org/2000/svg"
 width="58.000000pt" height="58.000000pt" viewBox="0 0 58.000000 58.000000"
 preserveAspectRatio="xMidYMid meet">

<g transform="translate(0.000000,58.000000) scale(0.100000,-0.100000)"
fill="#000000" stroke="none">
<path d="M209 458 c11 -15 11 -18 -2 -18 -8 0 -18 -7 -21 -16 -3 -8 -10 -13
-15 -9 -20 12 -43 -44 -44 -108 -1 -95 31 -146 145 -231 l39 -29 6 23 c3 12 9
17 12 11 8 -12 121 90 121 108 0 5 -4 21 -10 35 -6 17 -6 26 0 26 6 0 11 8 11
18 1 9 5 1 9 -18 7 -32 7 -33 9 -7 0 16 5 26 11 22 6 -3 10 1 10 9 0 9 -4 16
-9 16 -5 0 -7 8 -4 19 7 26 -14 96 -34 112 -14 12 -16 12 -9 -1 4 -9 1 -8 -7
3 -8 9 -20 17 -27 17 -10 0 -10 4 1 18 11 14 11 15 -1 5 -8 -7 -26 -13 -41
-13 -15 0 -32 -7 -39 -15 -11 -13 -15 -13 -33 0 -12 8 -31 15 -42 15 -12 0
-27 6 -35 13 -12 10 -12 9 -1 -5z m1 -53 c0 -2 -10 -10 -22 -16 -21 -11 -22
-11 -9 4 13 16 31 23 31 12z m74 -7 c-3 -4 -16 -8 -30 -8 -14 0 -22 4 -19 10
3 5 17 9 30 8 13 -1 21 -6 19 -10z m86 2 c12 -8 9 -10 -13 -10 -16 0 -26 4
-22 10 8 12 16 12 35 0z m70 -16 c0 -2 -9 0 -20 6 -11 6 -20 13 -20 16 0 2 9
0 20 -6 11 -6 20 -13 20 -16z m-230 -12 c0 -9 -44 -32 -58 -32 -9 1 41 39 51
40 4 0 7 -4 7 -8z m224 -11 c17 -19 17 -19 -3 -14 -11 3 -26 11 -32 19 -19 23
15 18 35 -5z m-139 -1 c4 -6 13 -5 25 2 23 14 70 -3 70 -26 0 -8 8 -21 18 -28
10 -7 22 -20 27 -28 8 -13 7 -13 -8 -1 -9 7 -17 10 -17 5 0 -5 -5 -2 -10 6 -8
12 -10 12 -10 1 0 -8 7 -19 16 -26 15 -10 15 -17 3 -63 -7 -31 -17 -48 -22
-43 -5 5 -3 17 4 29 10 17 9 25 -8 52 l-20 32 -2 -29 c-1 -31 -7 -100 -9 -122
-1 -9 -6 -10 -14 -3 -14 10 -47 10 -64 -1 -14 -8 -24 2 -24 25 0 12 4 16 11
12 14 -8 2 35 -16 56 -7 8 -10 21 -8 28 9 23 -12 12 -24 -13 -9 -20 -8 -28 4
-40 8 -8 11 -20 7 -26 -10 -17 -35 49 -32 87 1 18 6 32 11 31 5 -1 11 3 14 10
6 16 -27 10 -38 -8 -5 -8 -9 -9 -9 -2 0 6 11 20 25 31 14 11 25 24 25 29 0 27
61 46 75 23z m-95 -28 c0 -5 -12 -14 -27 -21 -28 -13 -28 -13 -9 8 20 22 36
27 36 13z m240 -7 c20 -24 5 -28 -21 -6 -19 16 -20 20 -8 21 9 0 22 -7 29 -15z
m-275 -104 c-6 -15 -7 -15 -15 0 -5 8 -6 26 -3 39 l6 24 9 -24 c5 -13 6 -31 3
-39z m129 -126 c-4 -8 -8 -15 -10 -15 -2 0 -4 7 -4 15 0 8 4 15 10 15 5 0 7
-7 4 -15z"/>
<path d="M252 316 c7 -8 15 -12 17 -11 5 6 -10 25 -20 25 -5 0 -4 -6 3 -14z"/>
<path d="M337 323 c-12 -12 -7 -22 8 -17 8 4 15 10 15 15 0 11 -14 12 -23 2z"/>
<path d="M291 234 c11 -14 10 -18 -6 -30 -17 -13 -16 -14 16 -14 25 0 30 3 19
10 -12 8 -13 13 -2 30 11 18 10 20 -14 20 -23 0 -25 -2 -13 -16z"/>
<path d="M338 463 c7 -3 16 -2 19 1 4 3 -2 6 -13 5 -11 0 -14 -3 -6 -6z"/>
</g>
</svg>
